<svg width="35" height="37" viewBox="0 0 35 37" fill="none" xmlns="http://www.w3.org/2000/svg">
<path d="M30.9327 20.2396C31.0065 19.6864 31.0434 19.1147 31.0434 18.5062C31.0434 17.9161 31.0065 17.3261 30.9143 16.7729L34.6576 13.8593C34.9895 13.6012 35.0817 13.1033 34.8789 12.7345L31.3384 6.61243C31.1171 6.20675 30.6561 6.07767 30.2504 6.20675L25.8433 7.97699C24.9213 7.27627 23.944 6.68619 22.856 6.24363L22.1922 1.55987C22.1184 1.11731 21.7496 0.803833 21.307 0.803833H14.2261C13.7835 0.803833 13.4332 1.11731 13.3594 1.55987L12.6956 6.24363C11.6076 6.68619 10.6119 7.29471 9.70829 7.97699L5.30113 6.20675C4.89545 6.05923 4.43445 6.20675 4.21317 6.61243L0.691135 12.7345C0.469855 13.1217 0.543615 13.6012 0.912415 13.8593L4.65573 16.7729C4.56353 17.3261 4.48977 17.9346 4.48977 18.5062C4.48977 19.0779 4.52665 19.6864 4.61885 20.2396L0.875535 23.1531C0.543615 23.4113 0.451415 23.9091 0.654255 24.2779L4.19473 30.4C4.41601 30.8057 4.87701 30.9348 5.28269 30.8057L9.68985 29.0355C10.6118 29.7362 11.5892 30.3263 12.6771 30.7688L13.341 35.4526C13.4332 35.8951 13.7835 36.2086 14.2261 36.2086H21.307C21.7496 36.2086 22.1184 35.8951 22.1737 35.4526L22.8376 30.7688C23.9255 30.3263 24.9213 29.7362 25.8248 29.0355L30.232 30.8057C30.6377 30.9532 31.0987 30.8057 31.32 30.4L34.8604 24.2779C35.0817 23.8723 34.9895 23.4113 34.6392 23.1531L30.9327 20.2396ZM17.7666 25.1446C14.1154 25.1446 11.1282 22.1573 11.1282 18.5062C11.1282 14.8551 14.1154 11.8678 17.7666 11.8678C21.4177 11.8678 24.405 14.8551 24.405 18.5062C24.405 22.1573 21.4177 25.1446 17.7666 25.1446Z" fill="white"/>
</svg>
