<svg width="289" height="325" viewBox="0 0 289 325" fill="none" xmlns="http://www.w3.org/2000/svg">
<rect width="40" height="65" rx="8" transform="matrix(1 0 0 -1 249 178)" fill="black"/>
<rect width="40" height="65" rx="8" transform="matrix(1 0 0 -1 249 178)" fill="black"/>
<rect width="40" height="65" rx="8" transform="matrix(1 0 0 -1 0 178)" fill="black"/>
<rect width="185" height="230" transform="matrix(1 0 0 -1 52 293)" fill="#DFDFDF"/>
<rect x="263" y="57" width="11" height="200" fill="#DFDFDF"/>
<rect x="14" y="60" width="11" height="200" fill="#DFDFDF"/>
<rect width="162" height="111" transform="matrix(1 0 0 -1 63 282)" fill="black"/>
<path d="M249 57C249 61.4183 252.582 65 257 65H281C285.418 65 289 61.4183 289 57V8C289 3.58172 285.418 0 281 0H257C252.582 0 249 3.58172 249 8V57Z" fill="#30B630"/>
<path d="M63 164H225V75H63V164Z" fill="#303030"/>
<rect width="40" height="65" rx="8" transform="matrix(1 0 0 -1 0 325)" fill="#30B630"/>
<path d="M107 120H180V73H107V120Z" fill="#DFDFDF"/>
<path d="M131 106C131 107.657 132.343 109 134 109H153C154.657 109 156 107.657 156 106V87C156 85.3431 154.657 84 153 84H134C132.343 84 131 85.3431 131 87V106Z" fill="#303030"/>
<path d="M20 193H272V208H20V193Z" fill="#DFDFDF"/>
<rect width="40" height="65" rx="8" transform="matrix(1 0 0 -1 249 178)" fill="black"/>
<rect width="40" height="65" rx="8" transform="matrix(1 0 0 -1 0 178)" fill="black"/>
<rect width="185" height="230" transform="matrix(1 0 0 -1 52 293)" fill="#DFDFDF"/>
<rect x="14" y="60" width="11" height="200" fill="#DFDFDF"/>
<rect width="162" height="111" transform="matrix(1 0 0 -1 63 282)" fill="black"/>
<path d="M63 164H225V75H63V164Z" fill="#303030"/>
<path d="M107 120H180V73H107V120Z" fill="#DFDFDF"/>
<path d="M131 106C131 107.657 132.343 109 134 109H153C154.657 109 156 107.657 156 106V87C156 85.3431 154.657 84 153 84H134C132.343 84 131 85.3431 131 87V106Z" fill="#303030"/>
<path d="M20 193H272V208H20V193Z" fill="#DFDFDF"/>
<rect width="40" height="65" rx="8" transform="matrix(1 0 0 -1 249 178)" fill="black"/>
<rect width="40" height="65" rx="8" transform="matrix(1 0 0 -1 0 178)" fill="black"/>
<rect width="185" height="230" transform="matrix(1 0 0 -1 52 293)" fill="#DFDFDF"/>
<rect x="14" y="60" width="11" height="200" fill="#DFDFDF"/>
<rect width="162" height="111" transform="matrix(1 0 0 -1 63 282)" fill="black"/>
<path d="M63 164H225V75H63V164Z" fill="#303030"/>
<path d="M107 120H180V73H107V120Z" fill="#DFDFDF"/>
<path d="M131 106C131 107.657 132.343 109 134 109H153C154.657 109 156 107.657 156 106V87C156 85.3431 154.657 84 153 84H134C132.343 84 131 85.3431 131 87V106Z" fill="#303030"/>
<path d="M20 193H272V208H20V193Z" fill="#DFDFDF"/>
<rect width="40" height="65" rx="8" transform="matrix(1 0 0 -1 0 178)" fill="black"/>
<rect width="185" height="230" transform="matrix(1 0 0 -1 52 293)" fill="#DFDFDF"/>
<rect x="14" y="60" width="11" height="200" fill="#DFDFDF"/>
<rect width="162" height="111" transform="matrix(1 0 0 -1 63 282)" fill="black"/>
<path d="M63 164H225V75H63V164Z" fill="#303030"/>
<path d="M107 120H180V73H107V120Z" fill="#DFDFDF"/>
<path d="M131 106C131 107.657 132.343 109 134 109H153C154.657 109 156 107.657 156 106V87C156 85.3431 154.657 84 153 84H134C132.343 84 131 85.3431 131 87V106Z" fill="#303030"/>
<path d="M20 193H272V208H20V193Z" fill="#DFDFDF"/>
<rect x="263" y="65" width="11" height="200" fill="#DFDFDF"/>
<rect width="40" height="65" rx="8" transform="matrix(1 0 0 -1 0 65)" fill="#30B630"/>
<path d="M249 317C249 321.418 252.582 325 257 325H281C285.418 325 289 321.418 289 317V268C289 263.582 285.418 260 281 260H257C252.582 260 249 263.582 249 268V317Z" fill="#30B630"/>
</svg>
